<svg width="60" height="60" viewBox="0 0 60 60" fill="none" xmlns="http://www.w3.org/2000/svg">
<path d="M24.0469 8.29688H10.875C8.25 8.29688 6.09375 10.4531 6.09375 13.125C6 15.7031 8.0625 17.8594 10.6406 17.9531H24.1875L24.0469 8.29688Z" fill="#073042"/>
<path d="M53.9062 51.2346H10.875C8.20313 51.2346 6.09375 49.0784 6.09375 46.4065V13.0784C6.09375 15.7502 8.25 17.9065 10.875 17.9534H46.9219C46.9219 17.9534 53.9531 17.344 53.9531 22.6409V51.2346H53.9062Z" fill="#4285F4"/>
<path d="M33.8437 34.1717C35.7655 32.7186 36.1405 29.9999 34.6874 28.1249C33.8905 27.0936 32.6718 26.4374 31.3593 26.3905H31.4999C31.7343 26.3436 32.0155 26.3436 32.2499 26.3905V23.7186C32.2499 23.3905 32.1093 23.1092 31.828 22.9686C31.4062 22.7342 30.8905 22.8749 30.6562 23.2967C30.5624 23.4374 30.5155 23.578 30.5624 23.7655V26.4842C28.2187 26.8592 26.578 29.0624 26.953 31.453V31.4999C27.1405 32.6249 27.7499 33.6561 28.6874 34.3124L20.7655 51.2811H25.9218L29.578 43.4999C29.9999 42.5624 31.1249 42.1405 32.1093 42.6092C32.4843 42.7967 32.8124 43.1249 32.9999 43.4999L36.7968 51.2811H42.0468L33.8437 34.1717ZM31.1718 33.4217C29.6718 33.4217 28.4999 32.203 28.4999 30.703C28.4999 29.203 29.7187 28.0311 31.2187 28.078C31.9218 28.078 32.5312 28.3592 33.0468 28.828C34.1249 29.8592 34.1249 31.5467 33.0937 32.6249C32.6249 33.0936 31.9218 33.4217 31.1718 33.4217Z" fill="#3870B2"/>
<path d="M21.1875 10.6406H39.6562V14.0156H21.1875V10.6406Z" fill="white"/>
<path d="M29.7656 28.0312C31.2187 28.0312 32.4375 29.25 32.3906 30.75C32.3906 32.2031 31.1719 33.4219 29.6719 33.375C28.2187 33.375 27.0469 32.1562 27.0469 30.7031C27.0469 30 27.3281 29.3437 27.8438 28.8281C28.3594 28.3125 29.0625 28.0312 29.7656 28.0312ZM30.7969 26.4844V23.6719C30.7969 23.3437 30.6562 23.0625 30.375 22.9219C29.9531 22.6875 29.4375 22.8281 29.2031 23.25C29.1094 23.3906 29.0625 23.5312 29.1094 23.7187V26.4375C26.7656 26.8125 25.125 29.0156 25.5 31.4062V31.4531C25.6875 32.5781 26.2969 33.6094 27.2344 34.2656L17.25 55.6875C16.875 56.4375 16.9219 57.375 17.4375 58.0781C18.1875 59.1562 19.6406 59.4375 20.7187 58.6875C21.0937 58.4531 21.375 58.0781 21.5625 57.7031L28.2187 43.4531C28.6406 42.5156 29.7656 42.0937 30.75 42.5625C31.125 42.75 31.4531 43.0781 31.6406 43.4531L38.4375 57.5625C39 58.7344 40.4062 59.2031 41.5781 58.6406C42.75 58.0781 43.2187 56.6719 42.6562 55.5L32.3906 34.1719C34.2656 32.6719 34.5937 29.9062 33.0937 28.0312C32.5312 27.2812 31.7344 26.7656 30.7969 26.4844Z" fill="#073042"/>
<path d="M36.9375 13.6406C36.2344 13.6406 35.6719 13.125 35.6719 12.4219C35.6719 12.0938 35.8125 11.7188 36.0469 11.4844C36.5625 11.0156 37.3125 11.0156 37.8281 11.4844C38.0625 11.7188 38.2031 12.0469 38.2031 12.375C38.1562 13.0781 37.6406 13.5938 36.9375 13.6406ZM23.0625 13.5938C22.3594 13.5938 21.7969 13.0312 21.7969 12.375C21.7969 12.0469 21.9375 11.7188 22.1719 11.4844C22.5938 10.9688 23.3906 10.875 23.9063 11.2969H23.9531C24.4688 11.7656 24.5156 12.5625 24.0469 13.0781L23.9063 13.2656C23.6719 13.5 23.3438 13.6406 23.0156 13.6406M37.3125 6.04688L39.7969 1.73438C39.9375 1.5 39.8438 1.21875 39.6562 1.03125C39.4219 0.9375 39.1875 0.984375 39.0469 1.17188L36.4688 5.625C32.3438 3.79688 27.6563 3.79688 23.5781 5.625L21.0469 1.21875C20.9531 1.07812 20.7656 0.9375 20.5781 0.9375C20.3906 0.9375 20.2031 1.03125 20.1094 1.21875C20.0156 1.35937 20.0156 1.59375 20.1094 1.73438L22.6406 6.04688C18.2344 8.4375 15.375 12.9375 14.9531 17.9062H45.0469C44.6719 12.8906 41.7656 8.4375 37.3594 6.04688" fill="#3DDC84"/>
<path d="M49.5 27.2344H47.5313C47.4375 27.2812 47.3438 27.375 47.3438 27.5156V58.6875C47.3438 58.8281 47.4375 58.9219 47.5781 58.9219H49.6406C52.0313 58.9219 53.9531 56.9531 53.9531 54.6094V22.875C53.9531 25.2656 52.0313 27.1875 49.6406 27.1875H49.5V27.2344Z" fill="#073042"/>
</svg>
