<svg width="60" height="60" viewBox="0 0 60 60" fill="none" xmlns="http://www.w3.org/2000/svg">
<path d="M40.7812 32.8125V30.4688H43.125V28.5938H40.7812V26.25H38.4375V28.5938H36.0938V30.4688H38.4375V32.8125H40.7812ZM49.2188 26.25H47.3438V28.5938H44.5312V30.4688H47.3438V32.8125H49.2188V30.4688H51.5625V28.5938H49.2188V26.25ZM54.6094 15.1406C54.3281 14.625 53.9531 14.1562 53.5312 13.9219L30.9844 0.890625C30.6094 0.65625 30.0938 0.5625 29.5312 0.5625C28.9688 0.5625 28.4531 0.703125 28.0781 0.890625L5.34375 13.9219C4.54687 14.3906 3.75 15.5625 3.75 16.4531V42.5625C3.75 43.0781 4.07812 43.6406 4.40625 44.1562L4.45312 44.2031C4.6875 44.5781 5.0625 44.9062 5.39062 45.0938L28.0312 58.1719C28.4062 58.4062 28.9688 58.5 29.5312 58.5C30.0938 58.5 30.6094 58.3594 30.9844 58.1719L53.25 45.0938C54.0469 44.625 54.375 43.4531 54.375 42.5625V16.4531C54.375 16.0781 54.5625 15.6094 54.375 15.2344L54.6094 15.1406ZM52.6406 16.125C52.6406 16.2656 52.5 16.3594 52.5 16.4531V42.5625C52.5 42.9375 52.4062 43.3594 52.3125 43.5L30 56.5312C29.9531 56.5781 29.7656 56.625 29.4844 56.625C29.2031 56.625 29.0156 56.5781 28.9688 56.5312L6.375 43.5C6.375 43.5 6.32812 43.4531 6.28125 43.4531L6 43.1719C5.8125 42.8438 6.09375 42.6563 5.625 42.6094V16.5C6.09375 16.2656 6.04687 15.7031 6.28125 15.6094L28.9219 2.53125C28.9688 2.53125 29.2031 2.4375 29.4844 2.4375C29.7656 2.4375 29.9531 2.48437 30 2.53125L52.5 15.5156L52.6875 15.9375C52.7344 15.9844 52.6406 16.0781 52.6406 16.125ZM29.5312 41.0156C23.2031 41.0156 18.0469 35.8594 18.0469 29.5312C18.0469 23.2031 23.2031 18.0469 29.5312 18.0469C33.7969 18.0469 37.5469 20.3906 39.5156 23.9062L45.6094 20.3906C42.4219 14.8125 36.4219 11.0156 29.5312 11.0156C19.3125 11.0156 11.0156 19.3125 11.0156 29.5312C11.0156 39.75 19.3125 48.0469 29.5312 48.0469C36.375 48.0469 42.375 44.2969 45.5625 38.7656L39.5156 35.2031C37.5469 38.6719 33.7969 41.0156 29.5312 41.0156Z" fill="#9C033A"/>
</svg>
