<svg width="60" height="60" viewBox="0 0 60 60" fill="none" xmlns="http://www.w3.org/2000/svg">
<path d="M59.3766 46.1438C57.2391 46.6876 55.9172 46.1673 54.7313 44.386C52.0687 40.3969 49.1297 36.5907 46.2938 32.7141C45.9281 32.2126 45.5484 31.7204 45.075 31.0969C41.7188 35.6251 38.3672 39.9376 35.2219 44.4235C34.0969 46.0266 32.9156 46.7251 30.8156 46.1579L43.4344 29.2219L31.6875 13.9266C33.7078 13.5329 35.1047 13.7344 36.3422 15.5438C39.075 19.5376 42.0891 23.3391 45.0937 27.361C48.1172 23.3532 51.0938 19.5469 53.9062 15.5907C55.0359 13.9876 56.25 13.3782 58.2797 13.9688C56.7422 16.0079 55.2375 18.0141 53.7234 20.0063C51.6797 22.6922 49.6734 25.411 47.5547 28.0407C46.8 28.9782 46.9219 29.5876 47.5969 30.4735C51.5156 35.6251 55.3875 40.8282 59.3766 46.1438ZM0.623438 28.9407C0.960938 27.2485 1.18594 25.5235 1.65469 23.8641C4.46719 13.8188 15.9984 9.64225 23.9203 15.8672C28.5609 19.5188 29.7141 24.6657 29.4844 30.4688H3.32812C2.93438 40.8797 10.4297 47.1657 19.9828 43.9594C23.3344 42.8344 25.3078 40.2094 26.2969 36.9282C26.7984 35.2829 27.6281 35.0251 29.175 35.4938C28.3828 39.6001 26.5875 43.0313 22.8375 45.1782C17.2125 48.3938 9.18281 47.3532 4.95937 42.886C2.46562 40.261 1.40625 36.9938 0.9375 33.4641C0.867188 32.9016 0.721875 32.3485 0.609375 31.7907C0.61875 30.8407 0.623438 29.8907 0.623438 28.9407ZM3.375 28.2422H27.0141C26.8594 20.7141 22.1719 15.3657 15.7641 15.3188C8.73281 15.2626 3.67969 20.4844 3.375 28.2422Z" fill="black"/>
</svg>
