<svg width="816" height="654" viewBox="0 0 816 654" fill="none" xmlns="http://www.w3.org/2000/svg">
<rect width="816" height="654" rx="20" fill="black"/>
<path d="M776.136 53.7764L748.574 39.9956C748.042 39.7296 747.417 40.1164 747.417 40.7111V67.2889C747.417 67.8836 748.042 68.2704 748.574 68.0044L776.136 54.2236C776.32 54.1315 776.32 53.8685 776.136 53.7764Z" fill="#3EC832"/>
<path d="M148.76 98L140.4 78.56H143.92L150.36 94.32L156.88 78.56H160.2L151.8 98H148.76ZM171.433 98.36C169.539 98.36 167.899 97.9467 166.513 97.12C165.126 96.2933 164.046 95.1333 163.273 93.64C162.526 92.12 162.153 90.3333 162.153 88.28C162.153 86.2267 162.526 84.4533 163.273 82.96C164.046 81.44 165.126 80.2667 166.513 79.44C167.899 78.6133 169.539 78.2 171.433 78.2C173.299 78.2 174.926 78.6133 176.313 79.44C177.726 80.2667 178.806 81.44 179.553 82.96C180.326 84.4533 180.713 86.2267 180.713 88.28C180.713 90.3333 180.326 92.12 179.553 93.64C178.806 95.1333 177.726 96.2933 176.313 97.12C174.926 97.9467 173.299 98.36 171.433 98.36ZM171.433 95.76C173.246 95.76 174.699 95.12 175.793 93.84C176.886 92.5333 177.433 90.68 177.433 88.28C177.433 85.8533 176.886 84 175.793 82.72C174.699 81.44 173.246 80.8 171.433 80.8C169.593 80.8 168.126 81.44 167.033 82.72C165.966 84 165.433 85.8533 165.433 88.28C165.433 90.68 165.966 92.5333 167.033 93.84C168.126 95.12 169.593 95.76 171.433 95.76ZM185.179 73.72V70.08H189.179V73.72H185.179ZM185.579 98V78.56H188.819V98H185.579ZM202.276 98.36C200.543 98.36 199.023 97.9467 197.716 97.12C196.436 96.2933 195.436 95.1333 194.716 93.64C194.023 92.12 193.676 90.3333 193.676 88.28C193.676 86.2 194.023 84.4133 194.716 82.92C195.436 81.4 196.436 80.24 197.716 79.44C199.023 78.6133 200.543 78.2 202.276 78.2C203.796 78.2 205.129 78.5333 206.276 79.2C207.449 79.8667 208.316 80.7867 208.876 81.96V69.8H212.116V98H208.956V94.44C208.396 95.6667 207.529 96.6267 206.356 97.32C205.183 98.0133 203.823 98.36 202.276 98.36ZM202.956 95.76C204.769 95.76 206.223 95.12 207.316 93.84C208.409 92.5333 208.956 90.68 208.956 88.28C208.956 85.8533 208.409 84 207.316 82.72C206.223 81.44 204.769 80.8 202.956 80.8C201.116 80.8 199.649 81.44 198.556 82.72C197.489 84 196.956 85.8533 196.956 88.28C196.956 90.68 197.489 92.5333 198.556 93.84C199.649 95.12 201.116 95.76 202.956 95.76ZM422.107 105.2C420.8 105.2 419.8 104.84 419.107 104.12C418.413 103.427 418.067 102.427 418.067 101.12V92.04C418.067 90.92 417.853 90.12 417.427 89.64C417 89.16 416.28 88.88 415.267 88.8L414.187 88.72V86.24L415.267 86.16C416.28 86.1067 417 85.84 417.427 85.36C417.853 84.8533 418.067 84.0533 418.067 82.96V73.88C418.067 72.5733 418.413 71.5733 419.107 70.88C419.8 70.16 420.8 69.8 422.107 69.8H426.027V72.36H423.067C421.893 72.36 421.307 72.96 421.307 74.16V83.28C421.307 84.3467 421.04 85.2667 420.507 86.04C419.973 86.8133 419.28 87.2933 418.427 87.48C419.28 87.6667 419.973 88.1467 420.507 88.92C421.04 89.6933 421.307 90.6133 421.307 91.68V100.84C421.307 102.04 421.893 102.64 423.067 102.64H426.027V105.2H422.107ZM140.32 325.2V322.64H143.28C144.427 322.64 145 322.04 145 320.84V311.68C145 310.613 145.267 309.693 145.8 308.92C146.36 308.147 147.067 307.667 147.92 307.48C147.067 307.293 146.36 306.813 145.8 306.04C145.267 305.267 145 304.347 145 303.28V294.16C145 292.96 144.427 292.36 143.28 292.36H140.32V289.8H144.24C145.52 289.8 146.507 290.16 147.2 290.88C147.893 291.573 148.24 292.573 148.24 293.88V302.96C148.24 304.053 148.453 304.853 148.88 305.36C149.307 305.84 150.027 306.107 151.04 306.16L152.12 306.24V308.72L151.04 308.8C150.027 308.853 149.307 309.133 148.88 309.64C148.453 310.12 148.24 310.92 148.24 312.04V321.12C148.24 322.427 147.893 323.427 147.2 324.12C146.507 324.84 145.52 325.2 144.24 325.2H140.32Z" fill="white"/>
<path d="M228.91 98V69.8H238.43C242.99 69.8 246.51 71.0133 248.99 73.44C251.47 75.84 252.71 79.32 252.71 83.88C252.71 88.44 251.47 91.9333 248.99 94.36C246.51 96.7867 242.99 98 238.43 98H228.91ZM232.19 95.2H238.19C245.55 95.2 249.23 91.4267 249.23 83.88C249.23 76.36 245.55 72.6 238.19 72.6H232.19V95.2ZM266.917 98.36C263.851 98.36 261.424 97.4667 259.637 95.68C257.851 93.8667 256.957 91.4133 256.957 88.32C256.957 86.32 257.357 84.56 258.157 83.04C258.957 81.4933 260.051 80.3067 261.437 79.48C262.851 78.6267 264.477 78.2 266.317 78.2C268.957 78.2 271.024 79.0533 272.517 80.76C274.011 82.44 274.757 84.76 274.757 87.72V88.96H260.117C260.224 91.1733 260.864 92.8667 262.037 94.04C263.211 95.1867 264.837 95.76 266.917 95.76C268.091 95.76 269.211 95.5867 270.277 95.24C271.344 94.8667 272.357 94.2667 273.317 93.44L274.437 95.72C273.557 96.5467 272.437 97.2 271.077 97.68C269.717 98.1333 268.331 98.36 266.917 98.36ZM266.397 80.6C264.557 80.6 263.104 81.1733 262.037 82.32C260.971 83.4667 260.344 84.9733 260.157 86.84H271.957C271.877 84.8667 271.357 83.3333 270.397 82.24C269.464 81.1467 268.131 80.6 266.397 80.6ZM284.932 98L276.572 78.56H280.092L286.532 94.32L293.052 78.56H296.372L287.972 98H284.932ZM308.284 98.36C305.218 98.36 302.791 97.4667 301.004 95.68C299.218 93.8667 298.324 91.4133 298.324 88.32C298.324 86.32 298.724 84.56 299.524 83.04C300.324 81.4933 301.418 80.3067 302.804 79.48C304.218 78.6267 305.844 78.2 307.684 78.2C310.324 78.2 312.391 79.0533 313.884 80.76C315.378 82.44 316.124 84.76 316.124 87.72V88.96H301.484C301.591 91.1733 302.231 92.8667 303.404 94.04C304.578 95.1867 306.204 95.76 308.284 95.76C309.458 95.76 310.578 95.5867 311.644 95.24C312.711 94.8667 313.724 94.2667 314.684 93.44L315.804 95.72C314.924 96.5467 313.804 97.2 312.444 97.68C311.084 98.1333 309.698 98.36 308.284 98.36ZM307.764 80.6C305.924 80.6 304.471 81.1733 303.404 82.32C302.338 83.4667 301.711 84.9733 301.524 86.84H313.324C313.244 84.8667 312.724 83.3333 311.764 82.24C310.831 81.1467 309.498 80.6 307.764 80.6ZM326.773 98.36C324.8 98.36 323.307 97.7867 322.293 96.64C321.307 95.4667 320.813 93.7733 320.813 91.56V69.8H324.053V91.32C324.053 94.1733 325.187 95.6 327.453 95.6C328.12 95.6 328.72 95.52 329.253 95.36L329.173 98.08C328.347 98.2667 327.547 98.36 326.773 98.36ZM340.534 98.36C338.641 98.36 337.001 97.9467 335.614 97.12C334.227 96.2933 333.147 95.1333 332.374 93.64C331.627 92.12 331.254 90.3333 331.254 88.28C331.254 86.2267 331.627 84.4533 332.374 82.96C333.147 81.44 334.227 80.2667 335.614 79.44C337.001 78.6133 338.641 78.2 340.534 78.2C342.401 78.2 344.027 78.6133 345.414 79.44C346.827 80.2667 347.907 81.44 348.654 82.96C349.427 84.4533 349.814 86.2267 349.814 88.28C349.814 90.3333 349.427 92.12 348.654 93.64C347.907 95.1333 346.827 96.2933 345.414 97.12C344.027 97.9467 342.401 98.36 340.534 98.36ZM340.534 95.76C342.347 95.76 343.801 95.12 344.894 93.84C345.987 92.5333 346.534 90.68 346.534 88.28C346.534 85.8533 345.987 84 344.894 82.72C343.801 81.44 342.347 80.8 340.534 80.8C338.694 80.8 337.227 81.44 336.134 82.72C335.067 84 334.534 85.8533 334.534 88.28C334.534 90.68 335.067 92.5333 336.134 93.84C337.227 95.12 338.694 95.76 340.534 95.76ZM354.681 105.2V78.56H357.841V82.04C358.427 80.84 359.294 79.9067 360.441 79.24C361.614 78.5467 362.974 78.2 364.521 78.2C366.254 78.2 367.761 78.6133 369.041 79.44C370.347 80.24 371.347 81.4 372.041 82.92C372.761 84.4133 373.121 86.2 373.121 88.28C373.121 90.3333 372.761 92.12 372.041 93.64C371.347 95.1333 370.347 96.2933 369.041 97.12C367.761 97.9467 366.254 98.36 364.521 98.36C363.027 98.36 361.694 98.0267 360.521 97.36C359.347 96.6933 358.481 95.7733 357.921 94.6V105.2H354.681ZM363.841 95.76C365.654 95.76 367.107 95.12 368.201 93.84C369.294 92.5333 369.841 90.68 369.841 88.28C369.841 85.8533 369.294 84 368.201 82.72C367.107 81.44 365.654 80.8 363.841 80.8C362.027 80.8 360.574 81.44 359.481 82.72C358.387 84 357.841 85.8533 357.841 88.28C357.841 90.68 358.387 92.5333 359.481 93.84C360.574 95.12 362.027 95.76 363.841 95.76ZM383.921 105.68C382.214 102.747 380.974 99.7733 380.201 96.76C379.428 93.72 379.041 90.6267 379.041 87.48C379.041 84.3333 379.428 81.2533 380.201 78.24C380.974 75.2267 382.214 72.24 383.921 69.28L386.241 70.16C384.961 73.1467 384.014 76.0533 383.401 78.88C382.788 81.68 382.481 84.5467 382.481 87.48C382.481 90.4133 382.788 93.2933 383.401 96.12C384.014 98.92 384.961 101.813 386.241 104.8L383.921 105.68ZM392.978 105.68L390.658 104.8C391.938 101.787 392.871 98.88 393.458 96.08C394.071 93.2533 394.378 90.3867 394.378 87.48C394.378 84.5733 394.071 81.72 393.458 78.92C392.871 76.0933 391.938 73.1733 390.658 70.16L392.978 69.28C394.684 72.24 395.924 75.2267 396.698 78.24C397.471 81.2533 397.858 84.3333 397.858 87.48C397.858 90.6267 397.471 93.72 396.698 96.76C395.924 99.7733 394.684 102.747 392.978 105.68ZM231.188 153.36C229.214 153.36 227.721 152.787 226.708 151.64C225.721 150.467 225.228 148.773 225.228 146.56V124.8H228.468V146.32C228.468 149.173 229.601 150.6 231.868 150.6C232.534 150.6 233.134 150.52 233.668 150.36L233.588 153.08C232.761 153.267 231.961 153.36 231.188 153.36ZM245.628 153.36C242.561 153.36 240.135 152.467 238.348 150.68C236.561 148.867 235.668 146.413 235.668 143.32C235.668 141.32 236.068 139.56 236.868 138.04C237.668 136.493 238.761 135.307 240.148 134.48C241.561 133.627 243.188 133.2 245.028 133.2C247.668 133.2 249.735 134.053 251.228 135.76C252.721 137.44 253.468 139.76 253.468 142.72V143.96H238.828C238.935 146.173 239.575 147.867 240.748 149.04C241.921 150.187 243.548 150.76 245.628 150.76C246.801 150.76 247.921 150.587 248.988 150.24C250.055 149.867 251.068 149.267 252.028 148.44L253.148 150.72C252.268 151.547 251.148 152.2 249.788 152.68C248.428 153.133 247.041 153.36 245.628 153.36ZM245.108 135.6C243.268 135.6 241.815 136.173 240.748 137.32C239.681 138.467 239.055 139.973 238.868 141.84H250.668C250.588 139.867 250.068 138.333 249.108 137.24C248.175 136.147 246.841 135.6 245.108 135.6ZM264.277 153.36C262.944 153.36 261.744 153.107 260.677 152.6C259.637 152.067 258.811 151.347 258.197 150.44C257.584 149.533 257.277 148.52 257.277 147.4C257.277 145.987 257.637 144.867 258.357 144.04C259.104 143.213 260.317 142.627 261.997 142.28C263.704 141.907 266.024 141.72 268.957 141.72H270.237V140.48C270.237 138.827 269.891 137.64 269.197 136.92C268.531 136.173 267.451 135.8 265.957 135.8C264.784 135.8 263.651 135.973 262.557 136.32C261.464 136.64 260.344 137.173 259.197 137.92L258.077 135.56C259.091 134.84 260.317 134.267 261.757 133.84C263.224 133.413 264.624 133.2 265.957 133.2C268.464 133.2 270.317 133.813 271.517 135.04C272.744 136.267 273.357 138.173 273.357 140.76V153H270.317V149.64C269.811 150.787 269.024 151.693 267.957 152.36C266.917 153.027 265.691 153.36 264.277 153.36ZM264.797 150.92C266.397 150.92 267.704 150.373 268.717 149.28C269.731 148.16 270.237 146.747 270.237 145.04V143.84H268.997C266.837 143.84 265.131 143.947 263.877 144.16C262.651 144.347 261.784 144.693 261.277 145.2C260.797 145.68 260.557 146.347 260.557 147.2C260.557 148.293 260.931 149.187 261.677 149.88C262.451 150.573 263.491 150.92 264.797 150.92ZM279.368 153V133.56H282.528V137.04C283.568 134.693 285.701 133.4 288.928 133.16L290.088 133.04L290.328 135.84L288.288 136.08C286.448 136.24 285.048 136.827 284.088 137.84C283.128 138.827 282.648 140.187 282.648 141.92V153H279.368ZM293.704 153V133.56H296.864V136.88C297.504 135.653 298.411 134.733 299.584 134.12C300.757 133.507 302.077 133.2 303.544 133.2C308.157 133.2 310.464 135.76 310.464 140.88V153H307.224V141.08C307.224 139.267 306.864 137.947 306.144 137.12C305.451 136.267 304.331 135.84 302.784 135.84C300.997 135.84 299.571 136.4 298.504 137.52C297.464 138.613 296.944 140.08 296.944 141.92V153H293.704ZM322.358 160.68C320.652 157.747 319.412 154.773 318.638 151.76C317.865 148.72 317.478 145.627 317.478 142.48C317.478 139.333 317.865 136.253 318.638 133.24C319.412 130.227 320.652 127.24 322.358 124.28L324.678 125.16C323.398 128.147 322.452 131.053 321.838 133.88C321.225 136.68 320.918 139.547 320.918 142.48C320.918 145.413 321.225 148.293 321.838 151.12C322.452 153.92 323.398 156.813 324.678 159.8L322.358 160.68ZM331.415 160.68L329.095 159.8C330.375 156.787 331.309 153.88 331.895 151.08C332.509 148.253 332.815 145.387 332.815 142.48C332.815 139.573 332.509 136.72 331.895 133.92C331.309 131.093 330.375 128.173 329.095 125.16L331.415 124.28C333.122 127.24 334.362 130.227 335.135 133.24C335.909 136.253 336.295 139.333 336.295 142.48C336.295 145.627 335.909 148.72 335.135 151.76C334.362 154.773 333.122 157.747 331.415 160.68ZM342.911 137.64V133.56H346.991V137.64H342.911ZM344.591 157.56L343.071 156.4C343.657 155.787 344.071 155.2 344.311 154.64C344.577 154.107 344.751 153.56 344.831 153H342.911V148.92H346.991V151.8C346.991 152.893 346.817 153.907 346.471 154.84C346.124 155.773 345.497 156.68 344.591 157.56ZM233.028 208.36C230.734 208.36 229.014 207.76 227.868 206.56C226.721 205.333 226.148 203.573 226.148 201.28V191.08H222.348V188.56H226.148V182.6H229.388V188.56H235.548V191.08H229.388V200.96C229.388 202.48 229.708 203.64 230.348 204.44C230.988 205.213 232.028 205.6 233.468 205.6C233.894 205.6 234.321 205.547 234.748 205.44C235.174 205.333 235.561 205.227 235.908 205.12L236.468 207.6C236.121 207.787 235.614 207.96 234.948 208.12C234.281 208.28 233.641 208.36 233.028 208.36ZM239.212 208V179.8H242.452V191.76C243.092 190.587 243.985 189.707 245.132 189.12C246.305 188.507 247.612 188.2 249.052 188.2C253.665 188.2 255.972 190.76 255.972 195.88V208H252.732V196.08C252.732 194.267 252.372 192.947 251.652 192.12C250.959 191.267 249.839 190.84 248.292 190.84C246.505 190.84 245.079 191.4 244.012 192.52C242.972 193.613 242.452 195.08 242.452 196.92V208H239.212ZM261.546 183.72V180.08H265.546V183.72H261.546ZM261.946 208V188.56H265.186V208H261.946ZM271.243 208V188.56H274.403V191.88C275.043 190.653 275.95 189.733 277.123 189.12C278.296 188.507 279.616 188.2 281.083 188.2C285.696 188.2 288.003 190.76 288.003 195.88V208H284.763V196.08C284.763 194.267 284.403 192.947 283.683 192.12C282.99 191.267 281.87 190.84 280.323 190.84C278.536 190.84 277.11 191.4 276.043 192.52C275.003 193.613 274.483 195.08 274.483 196.92V208H271.243ZM293.978 208V179.8H297.218V197.2H297.298L306.298 188.56H310.418L300.658 197.92L311.258 208H307.138L297.298 198.88H297.218V208H293.978ZM319.898 215.68C318.191 212.747 316.951 209.773 316.178 206.76C315.404 203.72 315.018 200.627 315.018 197.48C315.018 194.333 315.404 191.253 316.178 188.24C316.951 185.227 318.191 182.24 319.898 179.28L322.218 180.16C320.938 183.147 319.991 186.053 319.378 188.88C318.764 191.68 318.458 194.547 318.458 197.48C318.458 200.413 318.764 203.293 319.378 206.12C319.991 208.92 320.938 211.813 322.218 214.8L319.898 215.68ZM328.954 215.68L326.634 214.8C327.914 211.787 328.848 208.88 329.434 206.08C330.048 203.253 330.354 200.387 330.354 197.48C330.354 194.573 330.048 191.72 329.434 188.92C328.848 186.093 327.914 183.173 326.634 180.16L328.954 179.28C330.661 182.24 331.901 185.227 332.674 188.24C333.448 191.253 333.834 194.333 333.834 197.48C333.834 200.627 333.448 203.72 332.674 206.76C331.901 209.773 330.661 212.747 328.954 215.68ZM340.45 192.64V188.56H344.53V192.64H340.45ZM342.13 212.56L340.61 211.4C341.196 210.787 341.61 210.2 341.85 209.64C342.116 209.107 342.29 208.56 342.37 208H340.45V203.92H344.53V206.8C344.53 207.893 344.356 208.907 344.01 209.84C343.663 210.773 343.036 211.68 342.13 212.56ZM233.468 263.36C231.521 263.36 229.841 262.947 228.428 262.12C227.014 261.267 225.921 260.08 225.148 258.56C224.401 257.013 224.028 255.213 224.028 253.16C224.028 250.067 224.868 247.64 226.548 245.88C228.228 244.093 230.534 243.2 233.468 243.2C234.668 243.2 235.854 243.413 237.028 243.84C238.201 244.267 239.174 244.867 239.948 245.64L238.828 248C238.054 247.253 237.201 246.707 236.268 246.36C235.361 246.013 234.494 245.84 233.668 245.84C231.641 245.84 230.081 246.48 228.988 247.76C227.894 249.013 227.348 250.827 227.348 253.2C227.348 255.52 227.894 257.36 228.988 258.72C230.081 260.053 231.641 260.72 233.668 260.72C234.494 260.72 235.361 260.547 236.268 260.2C237.201 259.853 238.054 259.293 238.828 258.52L239.948 260.88C239.174 261.653 238.188 262.267 236.988 262.72C235.814 263.147 234.641 263.36 233.468 263.36ZM251.433 263.36C249.539 263.36 247.899 262.947 246.513 262.12C245.126 261.293 244.046 260.133 243.273 258.64C242.526 257.12 242.153 255.333 242.153 253.28C242.153 251.227 242.526 249.453 243.273 247.96C244.046 246.44 245.126 245.267 246.513 244.44C247.899 243.613 249.539 243.2 251.433 243.2C253.299 243.2 254.926 243.613 256.313 244.44C257.726 245.267 258.806 246.44 259.553 247.96C260.326 249.453 260.713 251.227 260.713 253.28C260.713 255.333 260.326 257.12 259.553 258.64C258.806 260.133 257.726 261.293 256.313 262.12C254.926 262.947 253.299 263.36 251.433 263.36ZM251.433 260.76C253.246 260.76 254.699 260.12 255.793 258.84C256.886 257.533 257.433 255.68 257.433 253.28C257.433 250.853 256.886 249 255.793 247.72C254.699 246.44 253.246 245.8 251.433 245.8C249.593 245.8 248.126 246.44 247.033 247.72C245.966 249 245.433 250.853 245.433 253.28C245.433 255.68 245.966 257.533 247.033 258.84C248.126 260.12 249.593 260.76 251.433 260.76ZM272.979 263.36C271.246 263.36 269.726 262.947 268.419 262.12C267.139 261.293 266.139 260.133 265.419 258.64C264.726 257.12 264.379 255.333 264.379 253.28C264.379 251.2 264.726 249.413 265.419 247.92C266.139 246.4 267.139 245.24 268.419 244.44C269.726 243.613 271.246 243.2 272.979 243.2C274.499 243.2 275.832 243.533 276.979 244.2C278.152 244.867 279.019 245.787 279.579 246.96V234.8H282.819V263H279.659V259.44C279.099 260.667 278.232 261.627 277.059 262.32C275.886 263.013 274.526 263.36 272.979 263.36ZM273.659 260.76C275.472 260.76 276.926 260.12 278.019 258.84C279.112 257.533 279.659 255.68 279.659 253.28C279.659 250.853 279.112 249 278.019 247.72C276.926 246.44 275.472 245.8 273.659 245.8C271.819 245.8 270.352 246.44 269.259 247.72C268.192 249 267.659 250.853 267.659 253.28C267.659 255.68 268.192 257.533 269.259 258.84C270.352 260.12 271.819 260.76 273.659 260.76ZM297.659 263.36C294.593 263.36 292.166 262.467 290.379 260.68C288.593 258.867 287.699 256.413 287.699 253.32C287.699 251.32 288.099 249.56 288.899 248.04C289.699 246.493 290.793 245.307 292.179 244.48C293.593 243.627 295.219 243.2 297.059 243.2C299.699 243.2 301.766 244.053 303.259 245.76C304.753 247.44 305.499 249.76 305.499 252.72V253.96H290.859C290.966 256.173 291.606 257.867 292.779 259.04C293.953 260.187 295.579 260.76 297.659 260.76C298.833 260.76 299.953 260.587 301.019 260.24C302.086 259.867 303.099 259.267 304.059 258.44L305.179 260.72C304.299 261.547 303.179 262.2 301.819 262.68C300.459 263.133 299.073 263.36 297.659 263.36ZM297.139 245.6C295.299 245.6 293.846 246.173 292.779 247.32C291.713 248.467 291.086 249.973 290.899 251.84H302.699C302.619 249.867 302.099 248.333 301.139 247.24C300.206 246.147 298.873 245.6 297.139 245.6ZM316.108 270.68C314.402 267.747 313.162 264.773 312.388 261.76C311.615 258.72 311.228 255.627 311.228 252.48C311.228 249.333 311.615 246.253 312.388 243.24C313.162 240.227 314.402 237.24 316.108 234.28L318.428 235.16C317.148 238.147 316.202 241.053 315.588 243.88C314.975 246.68 314.668 249.547 314.668 252.48C314.668 255.413 314.975 258.293 315.588 261.12C316.202 263.92 317.148 266.813 318.428 269.8L316.108 270.68ZM325.165 270.68L322.845 269.8C324.125 266.787 325.059 263.88 325.645 261.08C326.259 258.253 326.565 255.387 326.565 252.48C326.565 249.573 326.259 246.72 325.645 243.92C325.059 241.093 324.125 238.173 322.845 235.16L325.165 234.28C326.872 237.24 328.112 240.227 328.885 243.24C329.659 246.253 330.045 249.333 330.045 252.48C330.045 255.627 329.659 258.72 328.885 261.76C328.112 264.773 326.872 267.747 325.165 270.68ZM336.661 247.64V243.56H340.741V247.64H336.661ZM338.341 267.56L336.821 266.4C337.407 265.787 337.821 265.2 338.061 264.64C338.327 264.107 338.501 263.56 338.581 263H336.661V258.92H340.741V261.8C340.741 262.893 340.567 263.907 340.221 264.84C339.874 265.773 339.247 266.68 338.341 267.56Z" fill="#5C8374"/>
<path d="M28.96 95V92.2H35.4V70.76L30.32 73.96L28.92 71.52L36.32 66.8H38.68V92.2H44.72V95H28.96ZM27.6 150V147.52L37.24 137.12C38.6 135.627 39.5733 134.267 40.16 133.04C40.7733 131.813 41.08 130.56 41.08 129.28C41.08 126 39.1733 124.36 35.36 124.36C32.5067 124.36 29.9867 125.427 27.8 127.56L26.56 125C27.6 123.933 28.92 123.08 30.52 122.44C32.1467 121.773 33.8533 121.44 35.64 121.44C38.4667 121.44 40.6267 122.107 42.12 123.44C43.64 124.747 44.4 126.613 44.4 129.04C44.4 130.72 43.9867 132.373 43.16 134C42.3333 135.6 41.0667 137.307 39.36 139.12L31.8 147.2H45.56V150H27.6ZM35.68 205.36C33.8133 205.36 32.04 205.08 30.36 204.52C28.68 203.933 27.2667 203.093 26.12 202L27.32 199.4C28.6267 200.467 29.9467 201.24 31.28 201.72C32.6133 202.2 34.0533 202.44 35.6 202.44C37.6267 202.44 39.1733 202 40.24 201.12C41.3333 200.213 41.88 198.893 41.88 197.16C41.88 195.507 41.3333 194.253 40.24 193.4C39.1467 192.547 37.56 192.12 35.48 192.12H31.32V189.28H35.2C37.0133 189.28 38.44 188.813 39.48 187.88C40.5467 186.92 41.08 185.613 41.08 183.96C41.08 182.493 40.5867 181.36 39.6 180.56C38.64 179.76 37.2667 179.36 35.48 179.36C32.5467 179.36 29.9867 180.427 27.8 182.56L26.6 180C27.64 178.88 28.96 178.013 30.56 177.4C32.1867 176.76 33.8933 176.44 35.68 176.44C38.4 176.44 40.52 177.08 42.04 178.36C43.5867 179.64 44.36 181.413 44.36 183.68C44.36 185.253 43.96 186.64 43.16 187.84C42.36 189.013 41.2533 189.867 39.84 190.4C41.52 190.853 42.8267 191.693 43.76 192.92C44.6933 194.12 45.16 195.613 45.16 197.4C45.16 199.827 44.3067 201.76 42.6 203.2C40.92 204.64 38.6133 205.36 35.68 205.36ZM39.08 260V253.96H26.08V251.48L39.64 231.8H42.4V251.16H46.6V253.96H42.4V260H39.08ZM39.08 251.16V237.2L29.48 251.16H39.08ZM36.6 315.36C34.7867 315.36 33.0533 315.067 31.4 314.48C29.7467 313.893 28.3467 313.067 27.2 312L28.44 309.4C30.92 311.427 33.6267 312.44 36.56 312.44C38.5067 312.44 40.04 311.893 41.16 310.8C42.28 309.707 42.84 308.267 42.84 306.48C42.84 304.64 42.3067 303.133 41.24 301.96C40.1733 300.787 38.7067 300.2 36.84 300.2C34.1467 300.2 32.0267 301.32 30.48 303.56H28.08V286.8H44.44V289.6H31.32V299.68C32.8667 298.133 34.9067 297.36 37.44 297.36C39.2 297.36 40.7333 297.733 42.04 298.48C43.3467 299.227 44.3467 300.28 45.04 301.64C45.76 302.973 46.12 304.533 46.12 306.32C46.12 308.08 45.7333 309.64 44.96 311C44.1867 312.36 43.08 313.427 41.64 314.2C40.2267 314.973 38.5467 315.36 36.6 315.36ZM36.96 370.36C33.6267 370.36 31.0533 369.16 29.24 366.76C27.4533 364.333 26.56 360.947 26.56 356.6C26.56 351.72 27.56 347.973 29.56 345.36C31.56 342.747 34.36 341.44 37.96 341.44C39.4 341.44 40.84 341.747 42.28 342.36C43.7467 342.973 44.9467 343.8 45.88 344.84L44.68 347.4C43.6933 346.387 42.6133 345.627 41.44 345.12C40.2933 344.613 39.1067 344.36 37.88 344.36C35.2667 344.36 33.2533 345.333 31.84 347.28C30.4533 349.227 29.76 352.12 29.76 355.96V357.92C30.2667 356.16 31.2 354.787 32.56 353.8C33.9467 352.813 35.5733 352.32 37.44 352.32C39.0933 352.32 40.56 352.707 41.84 353.48C43.12 354.227 44.12 355.267 44.84 356.6C45.56 357.933 45.92 359.467 45.92 361.2C45.92 362.987 45.5333 364.573 44.76 365.96C44.0133 367.32 42.96 368.4 41.6 369.2C40.2667 369.973 38.72 370.36 36.96 370.36ZM36.76 367.56C38.5467 367.56 39.9867 366.987 41.08 365.84C42.2 364.693 42.76 363.187 42.76 361.32C42.76 359.48 42.2 357.987 41.08 356.84C39.9867 355.667 38.5467 355.08 36.76 355.08C34.9733 355.08 33.52 355.667 32.4 356.84C31.3067 357.987 30.76 359.48 30.76 361.32C30.76 363.187 31.3067 364.693 32.4 365.84C33.52 366.987 34.9733 367.56 36.76 367.56Z" fill="white" fill-opacity="0.32"/>
<path d="M67 459H816V634C816 645.046 807.046 654 796 654H67V459Z" fill="#3D3D3D"/>
<path d="M101.34 497.27C99.92 497.27 98.69 496.96 97.65 496.34C96.61 495.72 95.8 494.85 95.22 493.73C94.66 492.59 94.38 491.25 94.38 489.71C94.38 488.17 94.66 486.84 95.22 485.72C95.8 484.58 96.61 483.7 97.65 483.08C98.69 482.46 99.92 482.15 101.34 482.15C102.74 482.15 103.96 482.46 105 483.08C106.06 483.7 106.87 484.58 107.43 485.72C108.01 486.84 108.3 488.17 108.3 489.71C108.3 491.25 108.01 492.59 107.43 493.73C106.87 494.85 106.06 495.72 105 496.34C103.96 496.96 102.74 497.27 101.34 497.27ZM101.34 495.32C102.7 495.32 103.79 494.84 104.61 493.88C105.43 492.9 105.84 491.51 105.84 489.71C105.84 487.89 105.43 486.5 104.61 485.54C103.79 484.58 102.7 484.1 101.34 484.1C99.96 484.1 98.86 484.58 98.04 485.54C97.24 486.5 96.84 487.89 96.84 489.71C96.84 491.51 97.24 492.9 98.04 493.88C98.86 494.84 99.96 495.32 101.34 495.32ZM117.11 497.27C113.61 497.27 111.86 495.34 111.86 491.48V482.42H114.29V491.45C114.29 492.75 114.55 493.71 115.07 494.33C115.61 494.95 116.45 495.26 117.59 495.26C118.83 495.26 119.84 494.85 120.62 494.03C121.4 493.19 121.79 492.08 121.79 490.7V482.42H124.22V497H121.85V494.54C121.39 495.42 120.74 496.1 119.9 496.58C119.08 497.04 118.15 497.27 117.11 497.27ZM134.616 497.27C132.896 497.27 131.606 496.82 130.746 495.92C129.886 495 129.456 493.68 129.456 491.96V484.31H126.606V482.42H129.456V477.95H131.886V482.42H136.506V484.31H131.886V491.72C131.886 492.86 132.126 493.73 132.606 494.33C133.086 494.91 133.866 495.2 134.946 495.2C135.266 495.2 135.586 495.16 135.906 495.08C136.226 495 136.516 494.92 136.776 494.84L137.196 496.7C136.936 496.84 136.556 496.97 136.056 497.09C135.556 497.21 135.076 497.27 134.616 497.27ZM139.255 502.4V482.42H141.625V485.03C142.065 484.13 142.715 483.43 143.575 482.93C144.455 482.41 145.475 482.15 146.635 482.15C147.935 482.15 149.065 482.46 150.025 483.08C151.005 483.68 151.755 484.55 152.275 485.69C152.815 486.81 153.085 488.15 153.085 489.71C153.085 491.25 152.815 492.59 152.275 493.73C151.755 494.85 151.005 495.72 150.025 496.34C149.065 496.96 147.935 497.27 146.635 497.27C145.515 497.27 144.515 497.02 143.635 496.52C142.755 496.02 142.105 495.33 141.685 494.45V502.4H139.255ZM146.125 495.32C147.485 495.32 148.575 494.84 149.395 493.88C150.215 492.9 150.625 491.51 150.625 489.71C150.625 487.89 150.215 486.5 149.395 485.54C148.575 484.58 147.485 484.1 146.125 484.1C144.765 484.1 143.675 484.58 142.855 485.54C142.035 486.5 141.625 487.89 141.625 489.71C141.625 491.51 142.035 492.9 142.855 493.88C143.675 494.84 144.765 495.32 146.125 495.32ZM161.905 497.27C158.405 497.27 156.655 495.34 156.655 491.48V482.42H159.085V491.45C159.085 492.75 159.345 493.71 159.865 494.33C160.405 494.95 161.245 495.26 162.385 495.26C163.625 495.26 164.635 494.85 165.415 494.03C166.195 493.19 166.585 492.08 166.585 490.7V482.42H169.015V497H166.645V494.54C166.185 495.42 165.535 496.1 164.695 496.58C163.875 497.04 162.945 497.27 161.905 497.27ZM179.411 497.27C177.691 497.27 176.401 496.82 175.541 495.92C174.681 495 174.251 493.68 174.251 491.96V484.31H171.401V482.42H174.251V477.95H176.681V482.42H181.301V484.31H176.681V491.72C176.681 492.86 176.921 493.73 177.401 494.33C177.881 494.91 178.661 495.2 179.741 495.2C180.061 495.2 180.381 495.16 180.701 495.08C181.021 495 181.311 494.92 181.571 494.84L181.991 496.7C181.731 496.84 181.351 496.97 180.851 497.09C180.351 497.21 179.871 497.27 179.411 497.27ZM183.66 485.48V482.42H186.72V485.48H183.66ZM183.66 497V493.94H186.72V497H183.66Z" fill="white"/>
<path d="M230.61 497V475.85H238.98C241.26 475.85 243 476.4 244.2 477.5C245.42 478.6 246.03 480.17 246.03 482.21C246.03 484.23 245.42 485.8 244.2 486.92C243 488.02 241.26 488.57 238.98 488.57H233.07V497H230.61ZM233.07 486.5H238.68C241.96 486.5 243.6 485.07 243.6 482.21C243.6 479.33 241.96 477.89 238.68 477.89H233.07V486.5ZM248.971 497V482.42H251.341V485.03C252.121 483.27 253.721 482.3 256.141 482.12L257.011 482.03L257.191 484.13L255.661 484.31C254.281 484.43 253.231 484.87 252.511 485.63C251.791 486.37 251.431 487.39 251.431 488.69V497H248.971ZM265.608 497.27C264.188 497.27 262.958 496.96 261.918 496.34C260.878 495.72 260.068 494.85 259.488 493.73C258.928 492.59 258.648 491.25 258.648 489.71C258.648 488.17 258.928 486.84 259.488 485.72C260.068 484.58 260.878 483.7 261.918 483.08C262.958 482.46 264.188 482.15 265.608 482.15C267.008 482.15 268.228 482.46 269.268 483.08C270.328 483.7 271.138 484.58 271.698 485.72C272.278 486.84 272.568 488.17 272.568 489.71C272.568 491.25 272.278 492.59 271.698 493.73C271.138 494.85 270.328 495.72 269.268 496.34C268.228 496.96 267.008 497.27 265.608 497.27ZM265.608 495.32C266.968 495.32 268.058 494.84 268.878 493.88C269.698 492.9 270.108 491.51 270.108 489.71C270.108 487.89 269.698 486.5 268.878 485.54C268.058 484.58 266.968 484.1 265.608 484.1C264.228 484.1 263.128 484.58 262.308 485.54C261.508 486.5 261.108 487.89 261.108 489.71C261.108 491.51 261.508 492.9 262.308 493.88C263.128 494.84 264.228 495.32 265.608 495.32ZM281.768 497.27C280.468 497.27 279.328 496.96 278.347 496.34C277.388 495.72 276.638 494.85 276.098 493.73C275.578 492.59 275.318 491.25 275.318 489.71C275.318 488.15 275.578 486.81 276.098 485.69C276.638 484.55 277.388 483.68 278.347 483.08C279.328 482.46 280.468 482.15 281.768 482.15C282.908 482.15 283.908 482.4 284.768 482.9C285.648 483.4 286.298 484.09 286.718 484.97V475.85H289.148V497H286.778V494.33C286.358 495.25 285.708 495.97 284.828 496.49C283.948 497.01 282.928 497.27 281.768 497.27ZM282.278 495.32C283.638 495.32 284.728 494.84 285.548 493.88C286.368 492.9 286.778 491.51 286.778 489.71C286.778 487.89 286.368 486.5 285.548 485.54C284.728 484.58 283.638 484.1 282.278 484.1C280.898 484.1 279.798 484.58 278.978 485.54C278.178 486.5 277.778 487.89 277.778 489.71C277.778 491.51 278.178 492.9 278.978 493.88C279.798 494.84 280.898 495.32 282.278 495.32ZM298.868 497.27C295.368 497.27 293.618 495.34 293.618 491.48V482.42H296.048V491.45C296.048 492.75 296.308 493.71 296.828 494.33C297.368 494.95 298.208 495.26 299.348 495.26C300.588 495.26 301.598 494.85 302.378 494.03C303.158 493.19 303.548 492.08 303.548 490.7V482.42H305.978V497H303.608V494.54C303.148 495.42 302.498 496.1 301.658 496.58C300.838 497.04 299.908 497.27 298.868 497.27ZM316.704 497.27C315.244 497.27 313.984 496.96 312.924 496.34C311.864 495.7 311.044 494.81 310.464 493.67C309.904 492.51 309.624 491.16 309.624 489.62C309.624 487.3 310.254 485.48 311.514 484.16C312.774 482.82 314.504 482.15 316.704 482.15C317.604 482.15 318.494 482.31 319.374 482.63C320.254 482.95 320.984 483.4 321.564 483.98L320.724 485.75C320.144 485.19 319.504 484.78 318.804 484.52C318.124 484.26 317.474 484.13 316.854 484.13C315.334 484.13 314.164 484.61 313.344 485.57C312.524 486.51 312.114 487.87 312.114 489.65C312.114 491.39 312.524 492.77 313.344 493.79C314.164 494.79 315.334 495.29 316.854 495.29C317.474 495.29 318.124 495.16 318.804 494.9C319.504 494.64 320.144 494.22 320.724 493.64L321.564 495.41C320.984 495.99 320.244 496.45 319.344 496.79C318.464 497.11 317.584 497.27 316.704 497.27ZM330.261 497.27C328.541 497.27 327.251 496.82 326.391 495.92C325.531 495 325.101 493.68 325.101 491.96V484.31H322.251V482.42H325.101V477.95H327.531V482.42H332.151V484.31H327.531V491.72C327.531 492.86 327.771 493.73 328.251 494.33C328.731 494.91 329.511 495.2 330.591 495.2C330.911 495.2 331.231 495.16 331.551 495.08C331.871 495 332.161 494.92 332.421 494.84L332.841 496.7C332.581 496.84 332.201 496.97 331.701 497.09C331.201 497.21 330.721 497.27 330.261 497.27ZM334.919 497V493.94H337.979V497H334.919ZM341.745 497V493.94H344.805V497H341.745ZM348.572 497V493.94H351.632V497H348.572Z" fill="#5C8374"/>
</svg>
