<svg width="60" height="60" viewBox="0 0 60 60" fill="none" xmlns="http://www.w3.org/2000/svg">
<path fill-rule="evenodd" clip-rule="evenodd" d="M40.9026 46.9401C40.9819 46.7878 41.0578 46.6532 41.1225 46.514C41.1633 46.425 41.2261 46.4072 41.3147 46.4095C41.8458 46.4245 42.3769 46.4409 42.9084 46.4461C43.3598 46.4507 43.8122 46.4423 44.2641 46.4372C44.7731 46.4311 45.2822 46.4043 45.7908 46.4189C46.4681 46.4386 47.1281 46.5712 47.7408 46.8726C48.4725 47.2331 49.0261 47.782 49.4034 48.5053C49.6407 48.9639 49.7887 49.4633 49.8398 49.9771C49.9205 50.7309 49.8675 51.4673 49.6284 52.1882C49.3322 53.0817 48.7697 53.7656 47.9883 54.2779C47.3869 54.6722 46.7273 54.9051 46.0205 55.0382C45.2723 55.1793 44.5219 55.1339 43.7714 55.1362C42.9483 55.1395 42.1256 55.1217 41.3025 55.1123C41.1586 55.1109 41.138 55.0837 41.1759 54.9464L41.2111 54.8198C41.2912 54.5676 41.3344 54.5564 41.5903 54.5142C41.7717 54.4856 41.9452 54.4197 42.0998 54.3206C42.1861 54.2634 42.2217 54.1143 42.2555 53.9995C42.2845 53.8992 42.2859 53.789 42.2869 53.6831C42.2986 52.0776 42.3108 50.4726 42.3173 48.8681C42.3191 48.4623 42.309 48.0565 42.2869 47.6512C42.2709 47.3676 42.1195 47.1736 41.782 47.1065C41.5195 47.0545 41.2551 47.0142 40.9912 46.9678L40.9026 46.9401ZM48.4383 50.8275C48.4026 50.5078 48.3853 50.1853 48.3281 49.8703C48.1912 49.1142 47.8603 48.4556 47.2791 47.9395C46.3392 47.1056 45.2076 46.9772 44.0217 47.0765C43.7517 47.099 43.6936 47.1914 43.6894 47.4689C43.6828 47.8626 43.6762 48.2564 43.6758 48.6501C43.6739 49.8989 43.6739 51.1476 43.6758 52.3964C43.6762 52.7517 43.68 53.107 43.6903 53.4614C43.7016 53.8242 43.8333 54.1312 44.1886 54.2718C44.7487 54.4936 45.338 54.5198 45.9258 54.4293C46.8647 54.2854 47.5214 53.7384 47.962 52.9186C48.3108 52.2679 48.4092 51.5578 48.4383 50.8275ZM50.7206 55.0795C50.7094 54.885 50.7891 54.7242 50.8875 54.5765C50.9142 54.5367 51.0061 54.5386 51.0694 54.5259L51.6066 54.4195C51.7964 54.3792 51.8962 54.2517 51.923 54.0656C51.9408 53.9428 51.9576 53.8186 51.9591 53.6943C51.9718 52.7114 51.981 51.7284 51.9867 50.7454C51.9914 49.7611 51.9876 48.7767 51.9876 47.7923L51.9834 47.6043C51.9642 47.2879 51.8114 47.1239 51.4973 47.0775L50.8162 46.9739C50.7323 46.9626 50.7019 46.9223 50.7323 46.8478C50.7848 46.7207 50.835 46.589 50.9091 46.4747C50.9367 46.4325 51.03 46.4161 51.0928 46.4175C51.4181 46.4222 51.7434 46.4465 52.0687 46.4461L54.9005 46.4292C55.4461 46.4287 55.973 46.5239 56.4623 46.785C57.0009 47.0718 57.3023 47.5157 57.3886 48.1204C57.4786 48.7556 57.2859 49.2909 56.8219 49.7161C56.6311 49.8914 56.3841 50.0057 56.1628 50.1482L56.0906 50.1932C56.2959 50.2687 56.4914 50.3339 56.6817 50.4117C57.2386 50.64 57.6816 50.9967 57.9159 51.5662C58.1011 52.0157 58.1011 52.4845 57.9914 52.9504C57.8208 53.6798 57.3403 54.165 56.7155 54.532C56.1291 54.8765 55.4944 55.0772 54.8184 55.1109C54.195 55.1423 53.5687 55.1306 52.9439 55.1376L52.582 55.1395C51.9798 55.1257 51.3776 55.1107 50.7755 55.0945L50.7206 55.0795ZM53.3161 52.2253H53.3222C53.3222 52.5337 53.318 52.8422 53.3236 53.1506C53.3273 53.3503 53.3203 53.5556 53.3634 53.7478C53.4281 54.0351 53.5594 54.2943 53.8819 54.3768C54.313 54.4901 54.7634 54.51 55.2028 54.435C55.7545 54.3389 56.1947 54.0623 56.4361 53.5368C56.6151 53.1464 56.6419 52.7325 56.5805 52.3097C56.4989 51.7528 56.2031 51.3487 55.7114 51.0839C55.3889 50.91 55.0448 50.8036 54.6783 50.7895C54.2676 50.774 53.8566 50.7731 53.4459 50.7604C53.3306 50.7572 53.3147 50.8157 53.3151 50.9104C53.3175 51.3482 53.3161 51.7865 53.3161 52.2253ZM54.1903 50.1276C54.4148 50.1164 54.6689 50.1131 54.9216 50.0878C55.4053 50.0395 55.7461 49.7962 55.9237 49.3336C56.0142 49.0987 56.0105 48.8568 56.0128 48.6126C56.0198 47.9765 55.6486 47.4553 55.0444 47.2397C54.578 47.0732 54.097 47.0704 53.6133 47.0836C53.4173 47.0887 53.3297 47.1745 53.3269 47.3718L53.2978 49.9448C53.2964 50.047 53.3405 50.0911 53.4398 50.0943L54.1903 50.1276Z" fill="#94795D"/>
<path fill-rule="evenodd" clip-rule="evenodd" d="M4.94204 54.585L4.90782 55.0275C4.58907 55.0275 4.29516 55.0251 4.00126 55.0284C3.44766 55.034 2.89407 55.0429 2.34001 55.0509L2.28657 55.0542C2.20735 55.0448 2.06345 55.0448 2.0597 55.0214C2.03626 54.8897 2.04376 54.7514 2.04985 54.615C2.05032 54.5995 2.10423 54.5798 2.13563 54.5723L2.56641 54.4762C2.83501 54.4064 2.9297 54.2906 2.94235 54.0131C2.95688 53.7004 2.97141 53.3873 2.97282 53.0747C2.97704 52.305 2.97235 51.5362 2.97563 50.7665C2.9761 50.5865 2.91376 50.4525 2.74595 50.3793C2.54654 50.2908 2.34573 50.2055 2.1436 50.1234C2.04798 50.085 1.92376 50.0639 1.93501 49.9354C1.94626 49.8047 2.06673 49.7704 2.18016 49.7447C2.64985 49.6373 3.12001 49.5328 3.58829 49.4184C3.73923 49.3814 3.8836 49.319 4.06407 49.2562C4.07345 49.3537 4.09079 49.4465 4.08891 49.5393L4.06126 49.9804C4.06079 50.0301 4.08657 50.0967 4.1236 50.1243C4.1461 50.1417 4.22157 50.1103 4.25907 50.0812C4.65938 49.7765 5.08313 49.5136 5.56641 49.3603C6.31501 49.1226 6.95766 49.3429 7.40767 49.9884C7.5661 50.2158 7.56657 50.2158 7.78641 50.0569C8.16376 49.7826 8.55845 49.5408 9.00001 49.3814C9.96938 49.0312 10.9008 49.4756 11.2378 50.452C11.3606 50.8064 11.4075 51.1725 11.4066 51.5465L11.3977 54.03C11.3972 54.2348 11.4652 54.3515 11.6602 54.4153C11.8791 54.487 12.1059 54.5362 12.3525 54.6009L12.2953 55.0279C12.015 55.0279 11.7572 55.0261 11.4994 55.0284C10.8694 55.034 10.2394 55.0373 9.60985 55.0518C9.50016 55.0547 9.47157 55.0275 9.46595 54.9248C9.44767 54.5962 9.44485 54.5967 9.75423 54.5226L9.85829 54.4959C10.1606 54.4134 10.2614 54.3206 10.2638 54.014C10.2708 53.1337 10.2891 52.2511 10.2445 51.3726C10.1981 50.4614 9.47485 49.9762 8.59173 50.2097C8.3067 50.2877 8.03826 50.417 7.79954 50.5912C7.71751 50.6498 7.70204 50.7173 7.7086 50.82C7.73345 51.2081 7.74891 51.5967 7.7522 51.9853C7.75782 52.6654 7.74938 53.3456 7.7522 54.0262C7.75313 54.3018 7.84735 54.4073 8.1197 54.4711L8.52423 54.5643L8.59923 54.5812C8.60485 54.7106 8.61001 54.84 8.60391 54.9693C8.60016 55.0504 8.53735 55.0575 8.46704 55.0561C8.07376 55.0462 7.68001 55.0331 7.28673 55.034C6.80813 55.035 6.33001 55.0486 5.85188 55.057H5.73938C5.73938 54.9197 5.73282 54.7884 5.74407 54.6576C5.74641 54.6262 5.80173 54.5822 5.8397 54.5723L6.31126 54.4725C6.51141 54.4233 6.60704 54.3206 6.61829 54.1172C6.67173 53.175 6.71017 52.2323 6.62157 51.2906C6.59998 51.1046 6.54837 50.9234 6.46876 50.7539C6.22735 50.2204 5.68407 49.9978 5.05735 50.1581C4.7597 50.234 4.4911 50.3704 4.23704 50.5425C4.18164 50.5766 4.13613 50.6246 4.10504 50.6818C4.07396 50.7389 4.05838 50.8032 4.05985 50.8683C4.05985 51.8081 4.06313 52.7479 4.06595 53.6873L4.0711 54.0497C4.07673 54.3023 4.18407 54.4354 4.43485 54.4898C4.5961 54.5264 4.75923 54.5512 4.94204 54.585Z" fill="#50382B"/>
<path fill-rule="evenodd" clip-rule="evenodd" d="M33.2817 49.3524C33.3544 49.7058 33.353 50.0236 33.0933 50.2646C32.8355 50.5041 32.5092 50.4235 32.1909 50.37C32.2205 50.5378 32.2533 50.6803 32.2692 50.8247C32.385 51.8977 31.9233 52.6941 30.9281 53.1493C30.5522 53.3208 30.1533 53.3846 29.7459 53.4174C29.5434 53.4333 29.3662 53.588 29.347 53.7544C29.3273 53.9232 29.4333 54.0966 29.6452 54.1472C29.895 54.2068 30.1556 54.2236 30.412 54.2532C30.9623 54.316 31.5187 54.3446 32.0625 54.443C32.8847 54.5911 33.3436 55.3088 33.1987 56.1347C33.0698 56.8697 32.6442 57.4046 32.0508 57.8147C31.0509 58.5075 29.9541 58.71 28.7859 58.3566C28.118 58.1541 27.6469 57.7149 27.4842 57.0043C27.4027 56.6485 27.4894 56.3264 27.757 56.085C28.0753 55.7991 28.4217 55.5441 28.755 55.2741L28.8628 55.1658L28.7391 55.0791C28.3992 54.9178 28.1273 54.6971 28.0219 54.3136C27.9858 54.1838 28.0233 54.0985 28.1334 54.0319C28.3209 53.9189 28.5075 53.8041 28.6927 53.6874C28.7798 53.633 28.8661 53.5768 28.9472 53.5139C29.0578 53.4296 29.048 53.3668 28.9158 53.318C28.6083 53.2046 28.335 53.04 28.1231 52.7869C27.7692 52.3646 27.6689 51.8616 27.698 51.3305C27.7434 50.5008 28.1939 49.9543 28.9261 49.6027C29.7966 49.185 30.6698 49.1588 31.5572 49.5394C31.8853 49.68 32.2312 49.71 32.5833 49.6857C32.8462 49.6669 33.0759 49.5675 33.2817 49.3524ZM30.0741 55.2966C29.4206 55.291 29.2158 55.3716 28.8323 55.7621C28.403 56.1999 28.4053 56.8069 28.8337 57.2466C29.1591 57.5799 29.565 57.736 30.0164 57.7828C30.5437 57.8372 31.0631 57.8152 31.5422 57.5513C32.0531 57.2686 32.3072 56.7436 32.1923 56.2149C32.0972 55.7785 31.7756 55.5788 31.3842 55.4639C30.9389 55.3336 30.4786 55.3088 30.0741 55.2966ZM28.7906 51.121C28.8145 51.3024 28.8244 51.4861 28.8647 51.6638C28.9692 52.1241 29.1694 52.5286 29.6273 52.7335C30.165 52.9749 30.8517 52.8713 31.087 52.1166C31.2478 51.6144 31.2291 51.0719 31.0341 50.5819C30.9514 50.3579 30.8027 50.1644 30.6075 50.0269C30.1406 49.7011 29.2983 49.658 28.9552 50.378C28.8436 50.6119 28.8 50.8608 28.7906 51.121Z" fill="#4F382B"/>
<path fill-rule="evenodd" clip-rule="evenodd" d="M22.1953 49.2366C22.2127 49.3167 22.2473 49.4076 22.2483 49.4991C22.2497 49.673 22.2309 49.8469 22.2211 50.0208V50.1717L22.3683 50.0592C22.7714 49.7273 23.2045 49.4447 23.7089 49.2923C24.6192 49.0181 25.5286 49.5164 25.8253 50.4436C25.9378 50.7961 25.9823 51.1584 25.9866 51.5269C25.9959 52.3453 26.0016 53.1637 26.01 53.9822C26.0128 54.2761 26.0466 54.3286 26.3245 54.4134C26.4827 54.4607 26.6441 54.4965 26.8073 54.5208C26.8969 54.5348 26.9353 54.57 26.9306 54.6576L26.9316 54.7383C26.9283 55.0772 26.9048 55.0926 26.5762 55.0917C25.7897 55.0903 25.0036 55.095 24.217 55.1016C23.9827 55.1034 23.9822 55.1105 23.9587 54.8789L23.9541 54.7458C23.9686 54.5461 23.9733 54.548 24.1697 54.5189C24.3019 54.4992 24.4331 54.4687 24.562 54.435C24.6947 54.4008 24.7584 54.3028 24.7762 54.1716C24.7852 54.105 24.7969 54.0384 24.7964 53.9719C24.7852 53.0775 24.7997 52.1822 24.7509 51.2892C24.7116 50.5669 24.1603 50.1366 23.4352 50.1858C23.0856 50.21 22.7496 50.3305 22.4644 50.5341C22.2708 50.6695 22.2319 50.865 22.2328 51.0755C22.2366 51.9117 22.2445 52.748 22.2534 53.5847C22.2553 53.768 22.2605 53.9512 22.2778 54.1331C22.2961 54.3319 22.3659 54.412 22.5609 54.4551C22.7475 54.4964 22.9378 54.5203 23.137 54.5536L23.1539 54.7073C23.1605 55.0659 23.123 55.0926 22.7747 55.0912C21.9614 55.088 21.1481 55.0931 20.3353 55.102C20.2073 55.1039 20.153 55.0636 20.1562 54.9389L20.1544 54.8855C20.1333 54.5625 20.1427 54.5503 20.4483 54.4978L20.5927 54.4687C20.9236 54.3942 21.0084 54.3061 21.0131 53.97C21.0286 52.9055 21.0342 51.8414 21.045 50.7769C21.0464 50.6241 20.9887 50.5055 20.8462 50.4422C20.6463 50.3546 20.4452 50.2696 20.243 50.1872C20.1314 50.1412 20.0039 50.1122 19.9997 49.958C19.9969 49.8492 20.1131 49.7531 20.272 49.7208C20.5912 49.6561 20.9133 49.6022 21.2287 49.523C21.5428 49.4447 21.8512 49.3397 22.1953 49.2366Z" fill="#4F372B"/>
<path fill-rule="evenodd" clip-rule="evenodd" d="M39.7805 52.0172C39.7655 53.0114 39.5072 53.8153 38.8041 54.4186C37.9134 55.184 36.5241 55.4442 35.3883 54.8719C34.9036 54.6276 34.5473 54.2531 34.3153 53.767C33.9595 53.0194 33.8705 52.2333 34.0561 51.4279C34.2398 50.6315 34.7222 50.0545 35.4441 49.6809C36.1866 49.297 36.9684 49.147 37.793 49.3486C38.8359 49.6031 39.5855 50.4534 39.7345 51.5362C39.7612 51.7261 39.7716 51.9183 39.7805 52.0172ZM38.5725 52.5558L38.5322 52.5511C38.5322 52.4573 38.5373 52.3636 38.5312 52.2698C38.497 51.6858 38.3658 51.1294 38.0273 50.6404C37.7062 50.1773 37.2689 49.904 36.6998 49.8642C36.0628 49.8192 35.5275 50.1755 35.3395 50.8261C35.0573 51.803 35.153 52.755 35.6489 53.6498C35.865 54.0398 36.1852 54.3276 36.6141 54.479C37.4545 54.7748 38.1998 54.3919 38.4187 53.5312C38.4994 53.2134 38.5228 52.8811 38.5725 52.5558Z" fill="#4F382B"/>
<path fill-rule="evenodd" clip-rule="evenodd" d="M19.1339 52.0941C19.1165 52.8075 18.9483 53.467 18.5076 54.0403C18.0356 54.6544 17.3869 54.9825 16.649 55.1208C15.7767 55.2839 14.9573 55.1358 14.2565 54.5503C13.9237 54.2719 13.6964 53.9152 13.5464 53.5092C13.3003 52.8436 13.2389 52.1616 13.3903 51.4664C13.552 50.7225 13.972 50.1539 14.6231 49.7724C15.3759 49.3322 16.1883 49.1358 17.0559 49.3336C18.1715 49.5886 18.8156 50.3156 19.0537 51.4163C19.1015 51.6384 19.1081 51.8681 19.1339 52.0941ZM17.9123 52.5647L17.88 52.56V52.4259C17.8617 51.7716 17.7337 51.1481 17.3433 50.6044C17.054 50.2008 16.6669 49.9477 16.1705 49.8769C15.3614 49.7616 14.8326 50.2416 14.6573 50.8936C14.4286 51.7453 14.5003 52.5867 14.8542 53.3944C15.075 53.8978 15.4237 54.2902 15.9595 54.4805C16.7948 54.7772 17.5514 54.3844 17.7628 53.527C17.8406 53.2134 17.864 52.8863 17.9123 52.5647Z" fill="#4F372B"/>
<path fill-rule="evenodd" clip-rule="evenodd" d="M38.6072 15.7238C39.1823 17.3864 39.5958 19.0838 39.7322 20.8425C39.9009 23.025 39.8241 25.1925 39.3637 27.3389L39.3047 27.5105C39.1603 27.5109 39.0131 27.4927 38.872 27.5147C37.68 27.7022 36.4894 27.8963 35.2983 28.0894C34.0669 28.2891 32.8345 28.4808 31.6055 28.6936C31.17 28.7686 30.6309 28.6791 30.4552 29.2809L30.3708 29.3095L30.4303 25.7105L30.3698 17.0264L30.9436 16.928C31.8816 16.7747 32.8195 16.6186 33.7589 16.4691C34.8792 16.2914 36.0005 16.118 37.1217 15.9445C37.6167 15.8686 38.1122 15.7978 38.6072 15.7238Z" fill="#439934"/>
<path fill-rule="evenodd" clip-rule="evenodd" d="M29.1867 39.802C28.5816 39.2817 27.9553 38.7844 27.3755 38.2369C24.2545 35.2931 21.9713 31.8276 20.8467 27.6497C20.5369 26.5003 20.3306 25.3317 20.2641 24.1439C20.2172 23.3123 20.1502 22.4737 20.2092 21.6464C20.3653 19.4466 20.6836 17.2678 21.3286 15.1486L21.3642 15.0994C21.427 15.1828 21.517 15.2569 21.5489 15.3511C22.1789 17.2055 22.8038 19.0617 23.4258 20.9194C25.38 26.7558 27.3319 32.5936 29.2894 38.4291C29.3278 38.543 29.4267 38.6362 29.498 38.7389L29.1867 39.802Z" fill="#45A538"/>
<path fill-rule="evenodd" clip-rule="evenodd" d="M38.6072 15.7238C38.1117 15.7974 37.6162 15.8686 37.1217 15.9446C36.0005 16.118 34.8792 16.2915 33.7589 16.4691C32.82 16.6182 31.882 16.7743 30.9436 16.928L30.3698 17.0265L30.3651 16.6524C30.3459 16.3449 30.3141 16.0374 30.3098 15.7299L30.2456 9.84521C30.2306 8.61755 30.2081 7.38989 30.1833 6.1627C30.1706 5.39996 30.1486 4.63741 30.1172 3.87521C30.0984 3.46599 30.0323 3.05864 30.0061 2.64942C29.9906 2.41411 30.0112 2.17692 30.0164 1.94067C30.3089 2.50739 30.5953 3.07833 30.8958 3.64083C31.3706 4.53005 32.1276 5.18536 32.8097 5.90021C35.5031 8.72724 37.4151 12.0122 38.6072 15.7238Z" fill="#46A037"/>
<path fill-rule="evenodd" clip-rule="evenodd" d="M30.3712 29.3095L30.4556 29.2809C30.6314 28.6791 31.1705 28.7686 31.6059 28.6936C32.835 28.4808 34.0673 28.2891 35.2987 28.0894C36.4898 27.8967 37.6805 27.7026 38.8725 27.5147C39.0136 27.4926 39.1608 27.5109 39.3052 27.5105C39.0825 28.3055 38.9072 29.1178 38.6245 29.8908C38.3034 30.7673 37.9153 31.6233 37.5033 32.4623C36.8861 33.7136 36.1224 34.8871 35.2284 35.9583C34.5412 36.7842 33.7753 37.5487 33.008 38.303C32.5833 38.7197 32.0836 39.0595 31.6177 39.4345L31.4967 39.352L31.0622 38.9808L30.6127 37.9945C30.3055 36.8444 30.1379 35.6615 30.1134 34.4714L30.1219 34.2708L30.1833 33.4017C30.2034 33.105 30.2306 32.8087 30.2433 32.512C30.2883 31.4451 30.3286 30.3773 30.3712 29.3095Z" fill="#409433"/>
<path fill-rule="evenodd" clip-rule="evenodd" d="M30.3713 29.3095C30.3291 30.3773 30.2888 31.4456 30.2433 32.5134C30.2306 32.8106 30.2039 33.1069 30.1833 33.4031L29.9095 33.5067C29.3011 31.7156 28.6922 29.9433 28.0969 28.1667C27.112 25.2272 26.1394 22.2834 25.1559 19.343C24.3618 16.9698 23.5621 14.5986 22.7569 12.2292C22.7189 12.1186 22.6111 12.0314 22.5361 11.9334L24.2892 8.70984C24.3497 8.81437 24.4289 8.91234 24.4669 9.02484C25.2778 11.4248 26.0874 13.8253 26.8899 16.2281C27.9342 19.3547 28.9716 22.4827 30.015 25.6097C30.0567 25.7344 30.1252 25.8497 30.1908 25.9898L30.4308 25.7105L30.3713 29.3095Z" fill="#4FAA41"/>
<path fill-rule="evenodd" clip-rule="evenodd" d="M22.5356 11.9335C22.6111 12.0314 22.7189 12.1186 22.7564 12.2293C23.5617 14.5986 24.3614 16.9699 25.1555 19.343C26.1389 22.2835 27.1116 25.2272 28.0964 28.1668C28.6917 29.9433 29.3006 31.7152 29.9091 33.5068L30.1828 33.4032L30.1214 34.2722L30.0656 34.4724C29.9705 35.4235 29.8903 36.3764 29.7741 37.3257C29.7159 37.8014 29.5917 38.2683 29.4975 38.7389C29.4267 38.6363 29.3273 38.543 29.2889 38.4291C27.3309 32.5936 25.3795 26.7558 23.4253 20.9194C22.8035 19.062 22.1779 17.2059 21.5484 15.3511C21.5166 15.2569 21.4266 15.1828 21.3637 15.0994L22.5356 11.9335Z" fill="#4AA73C"/>
<path fill-rule="evenodd" clip-rule="evenodd" d="M30.4303 25.7104L30.1903 25.9898C30.1247 25.8496 30.0563 25.7343 30.0145 25.6096C28.9711 22.4826 27.9338 19.3546 26.8894 16.2281C26.0859 13.8256 25.2783 11.4245 24.4664 9.02479C24.4284 8.91229 24.3492 8.81432 24.2888 8.70978L26.4567 5.85791C26.5252 5.94885 26.6227 6.02994 26.6578 6.1326C27.2597 7.8951 27.8559 9.659 28.4494 11.4243C29.0034 13.0734 29.5491 14.7243 30.1097 16.3706C30.1472 16.4807 30.278 16.5585 30.3652 16.6523L30.3699 17.0263L30.4303 25.7104Z" fill="#57AE47"/>
<path fill-rule="evenodd" clip-rule="evenodd" d="M30.3652 16.6523C30.2775 16.559 30.1472 16.4812 30.1097 16.3706C29.5495 14.7243 29.0034 13.0734 28.4494 11.4243C27.8564 9.65899 27.2592 7.89508 26.6578 6.1326C26.6227 6.02995 26.5252 5.94885 26.4567 5.85792C27.1617 5.16745 27.8447 4.45213 28.5783 3.79354C29.2303 3.20854 29.7544 2.58135 29.7788 1.65651L29.8303 1.47229L30.0159 1.9401C30.0113 2.17635 29.9902 2.41354 30.0056 2.64885C30.0324 3.05807 30.0984 3.46542 30.1167 3.87463C30.1509 4.63635 30.1673 5.39948 30.1828 6.16213C30.2077 7.38932 30.2302 8.61698 30.2452 9.84463L30.3094 15.7293C30.3141 16.0373 30.3464 16.3448 30.3652 16.6523Z" fill="#60B24F"/>
<path fill-rule="evenodd" clip-rule="evenodd" d="M29.498 38.7385C29.5922 38.2678 29.7164 37.801 29.7745 37.3252C29.8908 36.3764 29.9709 35.423 30.0661 34.4719L30.09 34.4681L30.1134 34.4724C30.1379 35.6625 30.3055 36.8454 30.6127 37.9955C30.5494 38.0789 30.4608 38.1525 30.427 38.2463C30.1669 38.9803 29.9212 39.7205 29.6597 40.4541C29.6241 40.5544 29.5237 40.6327 29.4539 40.7203L29.1862 39.8016L29.498 38.7385Z" fill="#A9AA88"/>
<path fill-rule="evenodd" clip-rule="evenodd" d="M29.4539 40.7208C29.5238 40.6327 29.6241 40.5549 29.6597 40.4546C29.9213 39.721 30.1669 38.9808 30.427 38.2468C30.4603 38.153 30.5494 38.0794 30.6127 37.996L31.0622 38.9822C30.9736 39.1078 30.8508 39.2218 30.8016 39.3619L29.941 41.8894C29.9053 41.9911 29.7849 42.0624 29.7033 42.1482L29.4539 40.7208Z" fill="#B6B598"/>
<path fill-rule="evenodd" clip-rule="evenodd" d="M29.7033 42.1476C29.7844 42.0618 29.9053 41.9906 29.9409 41.8889L30.8016 39.3614C30.8503 39.2212 30.9736 39.1073 31.0622 38.9817L31.4972 39.3525C31.2872 39.5601 31.1705 39.8001 31.2408 40.1034L31.1086 40.5361C31.0486 40.6101 30.9614 40.6748 30.9319 40.7597C30.6314 41.6203 30.345 42.4856 30.0422 43.3457C30.0037 43.4545 29.8973 43.5403 29.8228 43.6368L29.7033 42.1476Z" fill="#C2C1A7"/>
<path fill-rule="evenodd" clip-rule="evenodd" d="M29.8224 43.6364C29.8974 43.5399 30.0038 43.4541 30.0417 43.3453C30.3445 42.4852 30.6314 41.6199 30.9314 40.7592C30.9609 40.6744 31.0481 40.6102 31.1081 40.5356L30.9258 42.5213C30.877 42.5775 30.8067 42.6267 30.7833 42.6919L30.1767 44.43C30.1341 44.5486 30.0525 44.6546 29.9888 44.7656C29.932 44.6916 29.8308 44.6199 29.8261 44.543C29.8083 44.2421 29.8209 43.9388 29.8224 43.6364Z" fill="#CECDB7"/>
<path fill-rule="evenodd" clip-rule="evenodd" d="M29.9892 44.7661C30.053 44.655 30.1345 44.5491 30.1772 44.4305L30.7838 42.6924C30.8072 42.6267 30.878 42.578 30.9263 42.5217L30.9309 43.8249L30.4945 44.9438L29.9892 44.7661Z" fill="#DBDAC7"/>
<path fill-rule="evenodd" clip-rule="evenodd" d="M30.4945 44.9437L30.9309 43.8248L31.0209 45.1486L30.4945 44.9437Z" fill="#EBE9DC"/>
<path fill-rule="evenodd" clip-rule="evenodd" d="M31.2403 40.1035C31.1705 39.8007 31.2867 39.5607 31.4967 39.3525L31.6177 39.435L31.2403 40.1035Z" fill="#CECDB7"/>
<path fill-rule="evenodd" clip-rule="evenodd" d="M30.1134 34.4728L30.09 34.4686L30.0661 34.4724L30.1219 34.2722L30.1134 34.4728Z" fill="#4FAA41"/>
</svg>
