<svg width="51" height="51" viewBox="0 0 51 51" fill="none" xmlns="http://www.w3.org/2000/svg">
<path d="M3.67963 8.43149L10.404 1.70711C10.7945 1.31658 11.4277 1.31658 11.8182 1.70711L21.5151 11.404C21.9056 11.7945 21.9056 12.4277 21.5151 12.8182L17.1763 17.157C16.872 17.4614 16.7965 17.9263 16.989 18.3113L18.7936 21.9205C21.0191 26.3716 24.6284 29.9808 29.0795 32.2064L32.6887 34.011C33.0737 34.2035 33.5386 34.128 33.843 33.8237L38.1818 29.4849C38.5723 29.0944 39.2055 29.0944 39.596 29.4849L49.2929 39.1818C49.6834 39.5723 49.6834 40.2055 49.2929 40.596L42.5685 47.3204C40.4572 49.4317 37.1146 49.6693 34.7259 47.8777L19.2952 36.3048C17.5517 34.9971 16.0029 33.4483 14.6952 31.7048L3.12226 16.2741C1.33072 13.8854 1.56827 10.5428 3.67963 8.43149Z" stroke="#33363F" stroke-width="2"/>
</svg>
