<svg width="60" height="60" viewBox="0 0 60 60" fill="none" xmlns="http://www.w3.org/2000/svg">
<path d="M30 15.4871C14.1844 15.4871 1.36218 21.9849 1.36218 30C1.36218 38.0152 14.1844 44.513 30 44.513C45.8156 44.513 58.6378 38.0152 58.6378 30C58.6378 21.9849 45.8156 15.4871 30 15.4871ZM22.5483 32.8275C21.8648 33.4669 21.1059 33.7308 20.2702 34.0027C19.4344 34.275 18.3708 34.2188 17.0775 34.2188H14.1464L13.3341 38.9063H9.91171L12.9656 22.9688H19.5469C21.5269 22.9688 22.9711 23.5383 23.8791 24.5775C24.787 25.6167 25.0598 27.0919 24.698 28.9542C24.5484 29.7216 24.2967 30.435 23.9414 31.0707C23.5732 31.7265 23.1029 32.3195 22.5483 32.8275ZM32.5378 34.2188L33.8883 27.4594C34.042 26.6682 33.9858 26.0803 33.7191 25.793C33.4519 25.5052 32.8837 25.3125 32.0152 25.3125H29.3011L27.5522 34.2188H24.1566L27.2105 18.75H30.6061L29.7942 22.9688H32.8191C34.7227 22.9688 36.0352 23.3508 36.7575 24.0146C37.4798 24.6783 37.6964 25.5877 37.4077 27.0746L35.9869 34.2188H32.5378ZM51.4092 28.9791C51.2602 29.7464 51.008 30.4477 50.6531 31.0828C50.2978 31.7189 49.8337 32.3007 49.2605 32.8275C48.577 33.4669 47.8176 33.7308 46.9823 34.0027C46.147 34.275 45.0825 34.2188 43.7892 34.2188H40.8581L40.0462 38.9063H36.6239L39.6773 22.9688H46.2591C48.2391 22.9688 49.6833 23.5383 50.5908 24.5775C51.4978 25.6167 51.7711 27.1172 51.4092 28.9791ZM44.962 25.3125H42.6178L41.3395 31.875H43.4217C44.8008 31.875 45.8292 31.7391 46.5042 31.2188C47.1802 30.6994 47.6353 29.8932 47.872 28.6777C48.0989 27.51 47.9958 26.5992 47.5627 26.1192C47.1291 25.6392 46.2623 25.3125 44.962 25.3125ZM18.2503 25.3125H15.9056L14.6273 31.875H16.7091C18.0886 31.875 19.1166 31.7391 19.792 31.2188C20.4675 30.6994 20.9231 29.8932 21.1594 28.6777C21.3862 27.51 21.2831 26.5992 20.85 26.1192C20.4169 25.6392 19.5506 25.3125 18.2503 25.3125Z" fill="#6181B6"/>
</svg>
